{"title":"Safe 2012 R5 LiNE XviD-YanKeeS [ThumperDC]","uid":7300823,"size":733815724,"categoryP":"video","categoryS":"movies","magnet":"?xt=urn:btih:0c1ee113b7d35d9283321bc0b898211c709b8446&amp;dn=Safe+2012+R5+LiNE+XviD-YanKeeS+%5BThumperDC%5D&amp;tr=udp%3A%2F%2Ftracker.openbittorrent.com%3A80&amp;tr=udp%3A%2F%2Fopen.demonii.com%3A1337&amp;tr=udp%3A%2F%2Ftracker.coppersurfer.tk%3A6969&amp;tr=udp%3A%2F%2Fexodus.desync.com%3A6969","seeders":0,"leechers":0,"uploader":"ThumperTM","files":-1,"time":1337991189,"description":"===================================================================\nGet all ThumperDCs newest releases first at: &lt;a href=&quot; http://thumperdc.org/&quot; rel=&quot;nofollow&quot; target=&quot;_NEW&quot;&gt; http://thumperdc.org/&lt;/a&gt;\t\n===================================================================\n\nSource Video: Zashitnik.2012.D.DVDRip.avi\nSource Audio: UnKnOwN (Thanks)\n\nComplete name                    : Safe.2012.R5.LiNE.XviD-YanKeeS.avi\nFormat                           : AVI\nFormat/Info                      : Audio Video Interleave\nFormat profile                   : OpenDML\nFile size                        : 700 MiB\nDuration                         : 1h 30mn\nOverall bit rate                 : 1 083 Kbps\n\nVideo\nID                               : 0\nFormat                           : MPEG-4 Visual\nFormat profile                   : Advanced Simple@L5\nFormat settings, BVOP            : 2\nFormat settings, QPel            : No\nFormat settings, GMC             : No warppoints\nFormat settings, Matrix          : Custom\nCodec ID                         : XVID\nCodec ID/Hint                    : XviD\nDuration                         : 1h 30mn\nBit rate                         : 946 Kbps\nWidth                            : 720 pixels\nHeight                           : 304 pixels\nDisplay aspect ratio             : 2.35:1\nFrame rate                       : 25.000 fps\nColor space                      : YUV\nChroma subsampling               : 4:2:0\nBit depth                        : 8 bits\nScan type                        : Progressive\nCompression mode                 : Lossy\nBits/(Pixel*Frame)               : 0.173\nStream size                      : 611 MiB (87%)\nWriting library                  : XviD 1.2.1 (UTC 2008-12-04)\n\nAudio\nID                               : 1\nFormat                           : MPEG Audio\nFormat version                   : Version 1\nFormat profile                   : Layer 3\nMode                             : Joint stereo\nMode extension                   : MS Stereo\nCodec ID                         : 55\nCodec ID/Hint                    : MP3\nDuration                         : 1h 30mn\nBit rate mode                    : Constant\nBit rate                         : 128 Kbps\nChannel(s)                       : 2 channels\nSampling rate                    : 48.0 KHz\nCompression mode                 : Lossy\nStream size                      : 82.7 MiB (12%)\nAlignment                        : Aligned on interleaves\nInterleave, duration             : 24 ms (0.60 video frame)\nInterleave, preload duration     : 192 ms\nTitle                            : English - YanKeeS\n &lt;a href=&quot;\nhttp://screensnapr.com/e/XRJ9VR.jpg&quot; rel=&quot;nofollow&quot; target=&quot;_NEW&quot;&gt;\nhttp://screensnapr.com/e/XRJ9VR.jpg&lt;/a&gt; &lt;a href=&quot;\nhttp://screensnapr.com/e/lbrOOj.jpg&quot; rel=&quot;nofollow&quot; target=&quot;_NEW&quot;&gt;\nhttp://screensnapr.com/e/lbrOOj.jpg&lt;/a&gt; &lt;a href=&quot;\nhttp://screensnapr.com/e/RSwVvV.jpg&quot; rel=&quot;nofollow&quot; target=&quot;_NEW&quot;&gt;\nhttp://screensnapr.com/e/RSwVvV.jpg&lt;/a&gt; &lt;a href=&quot;\nhttp://screensnapr.com/e/NMwzdG.jpg&quot; rel=&quot;nofollow&quot; target=&quot;_NEW&quot;&gt;\nhttp://screensnapr.com/e/NMwzdG.jpg&lt;/a&gt; &lt;a href=&quot;\nhttp://screensnapr.com/e/MYKXe2.jpg&quot; rel=&quot;nofollow&quot; target=&quot;_NEW&quot;&gt;\nhttp://screensnapr.com/e/MYKXe2.jpg&lt;/a&gt;\n\n====================================================================================\nNote: If You Have Problem With Any Of my Torrents Register To My Site And PM Me About Your  Problem: &lt;a href=&quot; http://thumperdc.org/&quot; rel=&quot;nofollow&quot; target=&quot;_NEW&quot;&gt; http://thumperdc.org/&lt;/a&gt;\t\n====================================================================================","torrent":{"xt":"urn:btih:0c1ee113b7d35d9283321bc0b898211c709b8446","amp;dn":"Safe+2012+R5+LiNE+XviD-YanKeeS+%5BThumperDC%5D","amp;tr":["udp%3A%2F%2Ftracker.openbittorrent.com%3A80","udp%3A%2F%2Fopen.demonii.com%3A1337","udp%3A%2F%2Ftracker.coppersurfer.tk%3A6969","udp%3A%2F%2Fexodus.desync.com%3A6969"],"infoHash":"0c1ee113b7d35d9283321bc0b898211c709b8446","infoHashBuffer":{"type":"Buffer","data":[12,30,225,19,183,211,93,146,131,50,27,192,184,152,33,28,112,155,132,70]},"announce":[],"urlList":[]}}